<svg width="32" height="32" viewBox="0 0 32 32" fill="none" xmlns="http://www.w3.org/2000/svg">
<path d="M16 30.25C23.8701 30.25 30.25 23.8701 30.25 16C30.25 8.12994 23.8701 1.75 16 1.75M16 30.25C8.12994 30.25 1.75 23.8701 1.75 16C1.75 8.12994 8.12994 1.75 16 1.75M16 30.25V1.75M4.06167 8.875H28.1442M15.5092 1.75001C15.5092 1.75001 8.55833 4.75834 8.55833 16C8.55833 27.2417 15.5092 30.25 15.5092 30.25M16.4908 1.75001C16.4908 1.75001 23.4417 4.75834 23.4417 16C23.4417 27.2417 16.4908 30.25 16.4908 30.25M4.06167 23.125H28.1442M2.63667 16H29.5533" stroke="black" stroke-width="1.58333" stroke-linecap="round" stroke-linejoin="round"/>
</svg>
